<svg xmlns="http://www.w3.org/2000/svg" viewBox="0 0 500 300" width="500" height="300" role="img" aria-labelledby="title desc">
  <title id="title">PitchMind logo</title>
  <desc id="desc">PitchMind football intelligence logo with a pitch-shaped data mark and wordmark.</desc>
  <defs>
    <linearGradient id="panelGrad" x1="0" y1="0" x2="1" y2="1">
      <stop offset="0" stop-color="#08111f"/>
      <stop offset="0.58" stop-color="#0d1f2d"/>
      <stop offset="1" stop-color="#101827"/>
    </linearGradient>
    <linearGradient id="markGrad" x1="0" y1="0" x2="1" y2="1">
      <stop offset="0" stop-color="#13d8a3"/>
      <stop offset="0.46" stop-color="#20b7ff"/>
      <stop offset="1" stop-color="#f6c85f"/>
    </linearGradient>
    <linearGradient id="lineGrad" x1="0" y1="0" x2="1" y2="0">
      <stop offset="0" stop-color="#13d8a3" stop-opacity="0.95"/>
      <stop offset="1" stop-color="#20b7ff" stop-opacity="0.95"/>
    </linearGradient>
    <filter id="softShadow" x="-20%" y="-20%" width="140%" height="140%">
      <feDropShadow dx="0" dy="16" stdDeviation="18" flood-color="#000000" flood-opacity="0.28"/>
    </filter>
  </defs>
  <rect width="500" height="300" rx="28" fill="url(#panelGrad)"/>
  <g opacity="0.12">
    <path d="M56 54H444M56 246H444M56 54V246M444 54V246" fill="none" stroke="#d7f7ff" stroke-width="1.4"/>
    <path d="M250 54V246M56 150H444" fill="none" stroke="#d7f7ff" stroke-width="1"/>
    <circle cx="250" cy="150" r="43" fill="none" stroke="#d7f7ff" stroke-width="1"/>
  </g>
  <g transform="translate(70 83)" filter="url(#softShadow)">
    <path d="M73.9 0 134 34.6v69.2l-60.1 34.7-60-34.7V34.6L73.9 0Z" fill="#07131f" stroke="url(#markGrad)" stroke-width="4"/>
    <path d="M28 41h92M28 98h92M74 16v107" fill="none" stroke="#ffffff" stroke-width="2.4" stroke-opacity="0.2"/>
    <path d="M35 70h78" fill="none" stroke="url(#lineGrad)" stroke-width="3.5" stroke-linecap="round"/>
    <circle cx="74" cy="70" r="26" fill="none" stroke="#ffffff" stroke-width="2.4" stroke-opacity="0.28"/>
    <path d="M39 93c23-31 47-46 73-45" fill="none" stroke="#13d8a3" stroke-width="4" stroke-linecap="round"/>
    <path d="M38 46c22 14 46 29 74 47" fill="none" stroke="#20b7ff" stroke-width="4" stroke-linecap="round" stroke-opacity="0.85"/>
    <circle cx="39" cy="93" r="6.5" fill="#13d8a3"/>
    <circle cx="74" cy="70" r="7.5" fill="#f6c85f"/>
    <circle cx="112" cy="48" r="6.5" fill="#20b7ff"/>
    <circle cx="112" cy="93" r="5.5" fill="#d7f7ff"/>
  </g>
  <g transform="translate(224 101)">
    <text x="0" y="0" font-family="Segoe UI, Inter, Arial, sans-serif" font-size="55" font-weight="760" fill="#f8fbff">Pitch</text>
    <text x="0" y="58" font-family="Segoe UI, Inter, Arial, sans-serif" font-size="55" font-weight="760" fill="#13d8a3">Mind</text>
    <path d="M4 82h180" stroke="url(#lineGrad)" stroke-width="4" stroke-linecap="round"/>
    <text x="3" y="111" font-family="Segoe UI, Inter, Arial, sans-serif" font-size="13" font-weight="700" fill="#b8c7d6" letter-spacing="3">FOOTBALL INTELLIGENCE</text>
  </g>
</svg>
